<?xml version="1.0" encoding="UTF-8" standalone="no"?>
<svg
   xmlns:dc="http://purl.org/dc/elements/1.1/"
   xmlns:cc="http://creativecommons.org/ns#"
   xmlns:rdf="http://www.w3.org/1999/02/22-rdf-syntax-ns#"
   xmlns:svg="http://www.w3.org/2000/svg"
   xmlns="http://www.w3.org/2000/svg"
   viewBox="0 0 768 960"
   height="960"
   width="768"
   xml:space="preserve"
   id="svg2"
   version="1.1"><metadata
     id="metadata8"><rdf:RDF><cc:Work
         rdf:about=""><dc:format>image/svg+xml</dc:format><dc:type
           rdf:resource="http://purl.org/dc/dcmitype/StillImage" /></cc:Work></rdf:RDF></metadata><defs
     id="defs6" /><g
     transform="matrix(1.3333333,0,0,-1.3333333,0,960)"
     id="g10"><g
       transform="scale(0.1)"
       id="g12"><path
         id="path14"
         style="fill:#1f3761;fill-opacity:1;fill-rule:nonzero;stroke:none"
         d="m 4770.29,2568.1 c -48.26,-93.35 -116.6,-93.62 -116.6,-93.62 0,0 -2.91,43.71 -19.77,82.91 -16.87,39.2 -102.05,52.72 -133.9,72.44 -31.85,19.72 -82.03,53.81 -82.03,53.81 l -69,28.65 c 0,0 65.43,0.2 120.26,0.09 51.55,-0.1 82.49,-0.16 130.94,34.4 54.98,39.21 103.43,4.42 103.43,4.42 48.46,-32.45 114.95,-89.75 66.67,-183.1 z m -400.63,55.19 c -2.2,27.57 -13.57,42.22 -24.18,68.71 81.21,-41.56 151.36,-87.38 226.55,-144.8 -76.84,45.17 -138.22,62.14 -202.37,76.09 z m 62.89,184.33 c 1.81,5.71 7.94,8.89 13.64,7.09 5.71,-1.8 8.9,-7.93 7.09,-13.64 -1.8,-5.71 -7.93,-8.89 -13.64,-7.09 -5.7,1.81 -8.9,7.93 -7.09,13.64 z m 44.48,-24.17 c -63.36,-38.05 -135.27,30.11 -91.84,94.74 10.19,-13.95 20.39,-27.92 30.58,-41.87 -11.04,-48.36 15.15,-60.35 61.26,-52.87 z m -151.13,-23.74 c -10.98,0.86 -21.93,1.67 -32.86,2.42 -2.73,0.19 -5.46,0.37 -8.19,0.55 -9.25,0.61 -18.5,1.17 -27.71,1.68 -2.17,0.12 -4.35,0.26 -6.51,0.37 -10.85,0.57 -21.65,1.04 -32.43,1.43 -2.47,0.09 -4.94,0.15 -7.41,0.23 -8.9,0.28 -17.77,0.49 -26.62,0.63 -2.52,0.04 -5.06,0.09 -7.58,0.12 -10.64,0.11 -21.24,0.1 -31.76,-0.05 -2.04,-0.02 -4.04,-0.09 -6.06,-0.13 -8.85,-0.16 -17.65,-0.43 -26.4,-0.8 -2.67,-0.12 -5.34,-0.22 -8,-0.35 -10.4,-0.52 -20.75,-1.16 -31,-2.01 -1.28,-0.1 -2.54,-0.25 -3.81,-0.36 -9.1,-0.78 -18.11,-1.74 -27.08,-2.81 -2.65,-0.32 -5.3,-0.64 -7.94,-0.99 -20.2,-2.63 -40.05,-6.05 -59.47,-10.36 -2.06,-0.46 -4.13,-0.92 -6.18,-1.39 -9.46,-2.21 -18.83,-4.61 -28.07,-7.27 -1.5,-0.43 -2.99,-0.92 -4.49,-1.36 -8.46,-2.52 -16.84,-5.25 -25.11,-8.18 -1.48,-0.52 -2.99,-1.01 -4.47,-1.55 -8.95,-3.27 -17.75,-6.82 -26.46,-10.61 -1.87,-0.81 -3.73,-1.66 -5.58,-2.5 -8.89,-4.01 -17.69,-8.21 -26.29,-12.81 v 0 c 0,0.01 0.01,0.02 0.01,0.03 3.23,7.11 6.86,14.19 10.7,21.24 0.97,1.79 1.96,3.56 2.96,5.33 4.02,7.1 8.26,14.17 12.98,21.2 0.01,0.01 0.01,0.02 0.02,0.03 7.05,10.51 14.92,20.94 23.7,31.27 8.79,10.35 18.49,20.59 29.2,30.73 5.36,5.07 10.98,10.11 16.85,15.12 -21.17,-5.37 -42.36,-9.97 -63.54,-13.91 -1.88,-0.35 -3.77,-0.73 -5.65,-1.07 -12.43,-2.23 -24.86,-4.18 -37.27,-5.89 -2.32,-0.32 -4.64,-0.63 -6.95,-0.94 -12.44,-1.61 -24.88,-2.99 -37.31,-4.06 -1.86,-0.17 -3.74,-0.28 -5.6,-0.43 -40.24,-3.2 -80.45,-3.48 -120.67,-0.52 -2.67,0.2 -5.35,0.41 -8.03,0.63 -21.75,1.84 -43.5,4.63 -65.25,8.43 -2.67,0.46 -5.36,0.95 -8.04,1.45 -10.87,2.02 -21.76,4.21 -32.64,6.74 v 0 c 5.47,5.67 11.21,11.04 17.08,16.25 1.86,1.65 3.8,3.22 5.7,4.83 4.18,3.53 8.44,6.99 12.81,10.32 1.11,0.84 2.24,1.66 3.36,2.49 3.95,2.93 8.25,5.45 12.34,8.22 0.01,0 0.01,0 0.01,0 0.01,0 0.01,0.01 0.01,0.01 8.26,5.59 16.88,10.75 25.67,15.72 0,0 0.01,0 0.01,0.01 1.7,0.95 3.4,1.93 5.12,2.86 0,0.01 0,0.01 0.01,0.01 6.32,3.45 12.91,6.59 19.48,9.76 3.53,1.69 6.96,3.5 10.57,5.11 0,0 0,0 0.01,0 9.42,4.23 19.07,8.18 28.95,11.87 0.02,0.01 0.04,0.01 0.06,0.02 0.57,0.21 1.12,0.44 1.7,0.65 0.01,0.01 0.02,0.01 0.03,0.01 6.55,2.42 13.38,4.54 20.13,6.73 5.21,1.69 10.34,3.48 15.65,5.06 v 0 c 10.63,3.14 21.41,6.11 32.45,8.78 0.92,0.22 1.86,0.4 2.77,0.62 0.02,0 0.04,0.01 0.06,0.01 11.04,2.62 22.19,5.1 33.59,7.3 v 0.01 c 0.01,0 0.01,0 0.02,0 12.35,2.41 24.91,4.58 37.64,6.55 0.17,0.02 0.33,0.06 0.51,0.09 12,1.84 24.19,3.47 36.49,4.98 0.93,0.11 1.84,0.26 2.78,0.38 -0.25,0.07 -0.48,0.14 -0.72,0.22 -7.84,2.36 -15.58,4.75 -23.23,7.18 -2.63,0.83 -5.21,1.7 -7.83,2.54 -5.28,1.71 -10.57,3.44 -15.76,5.19 -2.98,1.01 -5.91,2.05 -8.86,3.07 -4.76,1.66 -9.5,3.33 -14.18,5.04 -3.05,1.12 -6.06,2.25 -9.07,3.39 -4.51,1.71 -8.98,3.44 -13.41,5.21 -2.99,1.19 -5.97,2.39 -8.91,3.61 -4.43,1.83 -8.79,3.72 -13.13,5.63 -2.78,1.22 -5.6,2.43 -8.33,3.69 -4.69,2.14 -9.26,4.36 -13.83,6.6 -2.26,1.12 -4.57,2.19 -6.81,3.33 -6.71,3.42 -13.32,6.93 -19.76,10.6 -0.06,0.03 -0.11,0.06 -0.17,0.09 -6.42,3.67 -12.71,7.51 -18.87,11.46 -2.01,1.29 -3.93,2.66 -5.89,3.97 -4.14,2.76 -8.25,5.55 -12.26,8.46 -2.27,1.65 -4.5,3.39 -6.74,5.1 -3.59,2.74 -7.14,5.52 -10.62,8.4 -2.28,1.87 -4.5,3.81 -6.73,5.75 -3.33,2.9 -6.6,5.88 -9.82,8.93 -2.16,2.04 -4.31,4.1 -6.42,6.21 -3.19,3.2 -6.3,6.52 -9.37,9.87 -1.96,2.13 -3.93,4.23 -5.84,6.42 -3.24,3.76 -6.38,7.68 -9.49,11.64 -1.55,1.98 -3.16,3.88 -4.67,5.91 -4.48,5.97 -8.8,12.14 -12.94,18.58 -8.99,13.99 -17.2,29.1 -24.57,45.51 v 0 c 8.91,-3.39 17.55,-6.47 26.08,-9.39 2.62,-0.89 5.17,-1.7 7.75,-2.56 5.93,-1.95 11.79,-3.81 17.54,-5.54 2.83,-0.85 5.64,-1.68 8.43,-2.48 5.68,-1.63 11.3,-3.14 16.86,-4.55 2.41,-0.62 4.85,-1.28 7.25,-1.86 7.8,-1.89 15.51,-3.64 23.1,-5.14 13.28,-2.63 26.29,-4.68 39.16,-6.22 10.35,-1.24 20.59,-2.06 30.85,-2.67 1.45,-0.09 2.92,-0.21 4.37,-0.28 9.76,-0.5 19.52,-0.72 29.35,-0.72 1.81,0 3.64,0.01 5.47,0.02 9.82,0.08 19.71,0.36 29.75,0.87 1.54,0.08 3.1,0.19 4.64,0.27 10.53,0.6 21.17,1.35 32.11,2.34 13.73,1.24 27.82,2.76 42.43,4.5 -61.36,22.77 -116.75,49.98 -155.99,89.26 v 0 c 0.06,0.03 0.13,0.06 0.2,0.09 7.13,3.56 14.32,6.86 21.52,9.97 2.43,1.04 4.87,1.95 7.29,2.95 4.9,1.99 9.78,3.97 14.71,5.77 2.9,1.06 5.82,2.02 8.73,3.01 4.49,1.54 8.98,3.04 13.5,4.42 3.09,0.94 6.18,1.81 9.28,2.67 4.39,1.24 8.8,2.42 13.22,3.51 3.15,0.77 6.29,1.51 9.45,2.21 4.44,0.99 8.89,1.9 13.35,2.75 3.11,0.59 6.22,1.19 9.33,1.72 4.63,0.77 9.26,1.44 13.9,2.08 2.96,0.4 5.91,0.84 8.87,1.19 5.07,0.6 10.17,1.05 15.27,1.48 2.52,0.21 5.03,0.49 7.56,0.66 7.51,0.52 15.04,0.87 22.57,1.05 0.09,0 0.18,0 0.28,0 7.16,0.16 14.33,0.16 21.5,0.01 14.35,-0.29 28.72,-1.17 43.08,-2.6 0.06,-0.01 0.12,-0.02 0.16,-0.02 8.16,-0.82 16.3,-1.85 24.44,-3.01 2.61,-0.37 5.2,-0.81 7.81,-1.21 5.69,-0.89 11.39,-1.84 17.06,-2.88 2.88,-0.53 5.76,-1.08 8.63,-1.65 5.72,-1.13 11.41,-2.35 17.1,-3.63 2.53,-0.57 5.07,-1.11 7.6,-1.71 8.09,-1.92 16.15,-3.94 24.19,-6.15 0.07,-0.02 0.12,-0.03 0.19,-0.05 8.05,-2.21 16.09,-4.6 24.1,-7.1 2.52,-0.78 5.02,-1.62 7.54,-2.42 5.6,-1.81 11.18,-3.66 16.76,-5.59 2.79,-0.96 5.57,-1.95 8.35,-2.95 5.55,-1.98 11.07,-4.04 16.58,-6.14 2.46,-0.94 4.93,-1.86 7.38,-2.82 7.82,-3.07 15.62,-6.23 23.36,-9.52 0.02,0 0.05,-0.01 0.06,-0.02 7.77,-3.31 15.48,-6.75 23.15,-10.25 2.39,-1.1 4.77,-2.22 7.14,-3.34 5.36,-2.5 10.7,-5.04 16.01,-7.63 2.62,-1.29 5.23,-2.58 7.85,-3.88 5.27,-2.63 10.51,-5.32 15.72,-8.03 2.32,-1.21 4.64,-2.4 6.93,-3.62 7.35,-3.89 14.63,-7.83 21.83,-11.87 0.07,-0.04 0.15,-0.08 0.22,-0.12 7.22,-4.05 14.36,-8.18 21.44,-12.36 2.25,-1.32 4.46,-2.67 6.69,-4.01 4.92,-2.94 9.81,-5.91 14.67,-8.92 2.44,-1.51 4.88,-3.04 7.3,-4.57 4.82,-3.02 9.57,-6.08 14.31,-9.15 2.13,-1.38 4.27,-2.76 6.39,-4.15 6.62,-4.37 13.18,-8.77 19.63,-13.21 0.08,-0.05 0.17,-0.1 0.25,-0.16 -20.29,23.14 -40.6,46.28 -60.89,69.41 v 0 0 0.01 c 0.03,-0.02 0.07,-0.03 0.1,-0.05 3.74,-1.55 7.81,-3.38 12.02,-5.32 1.07,-0.49 2.15,-0.99 3.25,-1.51 4.35,-2.05 8.83,-4.21 13.58,-6.62 0.01,-0.01 0.03,-0.02 0.05,-0.03 0.08,-0.04 0.16,-0.08 0.24,-0.12 3.74,-1.9 7.6,-3.91 11.55,-6.02 1.33,-0.7 2.71,-1.47 4.06,-2.2 2.75,-1.49 5.49,-2.98 8.31,-4.55 1.68,-0.94 3.4,-1.92 5.11,-2.89 2.6,-1.48 5.21,-2.96 7.86,-4.51 1.82,-1.05 3.65,-2.13 5.48,-3.22 2.65,-1.56 5.3,-3.15 7.99,-4.78 1.89,-1.15 3.8,-2.31 5.71,-3.49 2.68,-1.64 5.36,-3.32 8.07,-5.02 1.95,-1.24 3.91,-2.47 5.88,-3.73 2.8,-1.8 5.61,-3.63 8.44,-5.49 1.86,-1.22 3.73,-2.43 5.6,-3.68 3.12,-2.08 6.23,-4.2 9.36,-6.34 1.62,-1.11 3.24,-2.19 4.86,-3.31 4.57,-3.17 9.15,-6.4 13.72,-9.7 0.15,-0.11 0.31,-0.22 0.46,-0.33 0.04,-0.03 0.08,-0.05 0.11,-0.08 5.85,-4.22 11.66,-8.57 17.45,-12.98 1.46,-1.13 2.93,-2.25 4.39,-3.38 12.81,-9.9 25.32,-20.2 37.3,-30.82 0.95,-0.84 1.92,-1.67 2.86,-2.53 6.17,-5.53 12.14,-11.15 17.93,-16.82 1.08,-1.06 2.15,-2.11 3.22,-3.18 5.73,-5.71 11.26,-11.47 16.51,-17.29 0.79,-0.86 1.53,-1.73 2.3,-2.6 9.3,-10.47 17.75,-21.06 25.05,-31.69 0.93,-1.36 1.79,-2.72 2.68,-4.08 2.05,-3.12 4.02,-6.23 5.86,-9.35 0.9,-1.53 1.78,-3.06 2.63,-4.59 1.74,-3.11 3.33,-6.21 4.83,-9.31 0.68,-1.38 1.39,-2.75 2.02,-4.13 3.98,-8.81 7,-17.57 8.9,-26.23 0.3,-1.34 0.48,-2.66 0.72,-3.99 0.55,-3.03 0.97,-6.05 1.24,-9.04 0.12,-1.5 0.21,-2.98 0.27,-4.46 0.11,-2.97 0.04,-5.92 -0.16,-8.86 -0.09,-1.31 -0.11,-2.63 -0.26,-3.94 -0.48,-4.17 -1.2,-8.32 -2.35,-12.4 -2.74,5.93 -5.99,11.65 -9.48,17.28 -1.02,1.67 -2.15,3.29 -3.24,4.93 -2.75,4.11 -5.69,8.15 -8.83,12.1 -1.24,1.57 -2.45,3.15 -3.76,4.69 -9.35,11.07 -20.13,21.56 -32.47,31.44 8.33,-18.02 15.81,-35.62 21.2,-52.21 0.01,-0.03 0.18,-0.56 0.42,-1.38 0.47,-1.53 1.24,-4.12 2.01,-6.76 0.02,-0.11 0.05,-0.2 0.08,-0.31 0.35,-1.21 0.7,-2.41 1,-3.5 0.02,-0.07 0.05,-0.16 0.07,-0.23 0.18,-0.68 0.35,-1.32 0.5,-1.88 0.26,-1.05 0.5,-2.1 0.76,-3.15 1.06,-4.53 2,-9 2.61,-13.32 0.64,-4.47 0.92,-8.77 0.9,-12.89 -0.04,-4.14 -0.39,-8.08 -1.02,-11.83 -0.58,-3.36 -1.46,-6.49 -2.47,-9.52 -0.31,-0.92 -0.67,-1.78 -1.01,-2.66 -0.84,-2.16 -1.79,-4.23 -2.85,-6.22 -0.43,-0.79 -0.83,-1.6 -1.3,-2.37 -1.54,-2.57 -3.2,-5.01 -5.09,-7.22 -0.01,-0.01 -0.02,-0.02 -0.03,-0.03 -1.89,-2.21 -3.99,-4.17 -6.19,-6.01 -0.66,-0.55 -1.35,-1.04 -2.03,-1.55 -1.68,-1.27 -3.44,-2.43 -5.26,-3.48 -0.74,-0.43 -1.46,-0.87 -2.22,-1.26 -2.52,-1.3 -5.12,-2.46 -7.84,-3.34 -6.14,-1.99 -12.74,-2.93 -19.56,-2.71 -3.03,0.1 -6.12,0.5 -9.22,1.06 -0.94,0.17 -1.87,0.4 -2.8,0.61 -2.32,0.52 -4.63,1.18 -6.97,1.96 -0.93,0.33 -1.87,0.62 -2.81,0.98 -3.13,1.21 -6.27,2.59 -9.37,4.3 -0.04,0.02 -0.09,0.05 -0.13,0.07 -3.09,1.71 -6.14,3.76 -9.16,5.98 -0.91,0.67 -1.79,1.4 -2.69,2.12 -2.23,1.77 -4.42,3.69 -6.59,5.76 -0.88,0.84 -1.76,1.66 -2.63,2.55 -2.89,2.97 -5.72,6.12 -8.43,9.65 -0.01,0.01 -0.02,0.02 -0.02,0.03 -3.65,5.4 -7.4,10.65 -11.27,15.74 -1.26,1.66 -2.61,3.21 -3.9,4.85 -2.65,3.35 -5.28,6.73 -8.04,9.94 -1.53,1.79 -3.15,3.46 -4.72,5.22 -2.6,2.9 -5.18,5.83 -7.87,8.6 -1.7,1.76 -3.49,3.39 -5.23,5.1 -2.65,2.61 -5.29,5.26 -8.03,7.75 -1.84,1.69 -3.77,3.24 -5.65,4.87 -2.73,2.37 -5.46,4.76 -8.27,7.01 -1.97,1.58 -4.01,3.04 -6.03,4.56 -2.83,2.15 -5.64,4.31 -8.55,6.34 -2.09,1.47 -4.26,2.82 -6.4,4.23 -2.93,1.93 -5.85,3.88 -8.85,5.7 -2.21,1.34 -4.49,2.57 -6.74,3.86 -3.03,1.72 -6.05,3.47 -9.16,5.09 -26.32,13.71 -55.26,23.59 -86.86,29.57 -8.39,1.58 -17.03,2.79 -25.8,3.83 -2.22,0.26 -4.44,0.51 -6.68,0.73 -8.87,0.9 -17.85,1.62 -27.09,1.97 -0.02,0 -0.04,0 -0.06,0 0.18,-0.07 0.33,-0.15 0.51,-0.22 6.83,-2.87 13.46,-5.78 19.89,-8.75 0.01,-0.01 0.02,-0.01 0.03,-0.02 6.58,-3.04 12.92,-6.14 19.03,-9.32 0.01,0 0.02,-0.01 0.04,-0.02 v 0 c 3.46,-1.79 6.7,-3.64 9.99,-5.48 0.01,-0.01 0.02,-0.01 0.03,-0.02 6.16,-3.45 12.02,-6.98 17.53,-10.6 0.36,-0.24 0.76,-0.48 1.14,-0.72 5.64,-3.76 11,-7.61 15.87,-11.59 0.01,-0.01 0.02,-0.01 0.02,-0.02 0.02,-0.01 0.05,-0.03 0.07,-0.05 0,0 0,0 0.01,0 v -0.01 c 0.31,-0.26 0.65,-0.5 0.96,-0.76 0,0 0.01,0 0.01,-0.01 h 0.01 c 1.59,-1.32 2.95,-2.71 4.42,-4.07 2.65,-2.38 5.33,-4.74 7.69,-7.2 v 0 c 3.25,-3.41 6.23,-6.9 8.88,-10.48 0,-0.01 0,-0.01 0,-0.01 0,0 0,-0.01 0.01,-0.01 0.28,-0.38 0.53,-0.76 0.8,-1.13 v 0 c 2.68,-3.74 5.08,-7.56 7.06,-11.5 v 0 c 2.29,-4.57 4.11,-9.27 5.38,-14.14 0.11,-0.45 0.29,-0.88 0.4,-1.33 0.01,-3.47 0.08,-6.91 0.18,-10.33 0,-0.01 0,-0.02 0,-0.04 0.31,-10.09 1.1,-19.89 2.67,-29.21 0.01,-0.04 0.01,-0.08 0.02,-0.12 0.08,-0.45 0.14,-0.92 0.22,-1.37 0.29,-1.59 0.63,-3.15 0.98,-4.72 0.2,-0.92 0.37,-1.85 0.59,-2.75 0.21,-0.87 0.46,-1.72 0.69,-2.58 0.15,-0.52 0.28,-1.05 0.43,-1.58 0.29,-1.05 0.57,-2.1 0.89,-3.13 0.4,-1.27 0.85,-2.51 1.29,-3.75 0.39,-1.08 0.77,-2.16 1.19,-3.22 0.46,-1.17 0.96,-2.31 1.47,-3.45 0.49,-1.09 0.98,-2.16 1.52,-3.22 0.52,-1.08 1.1,-2.14 1.69,-3.19 0.59,-1.06 1.21,-2.12 1.85,-3.15 0.48,-0.79 1.01,-1.56 1.52,-2.33 0.13,-0.2 0.26,-0.41 0.4,-0.6 0.71,-1.03 1.45,-2.03 2.21,-3.02 0.71,-0.92 1.43,-1.83 2.18,-2.71 0.84,-0.99 1.74,-1.95 2.65,-2.9 0.78,-0.82 1.55,-1.64 2.38,-2.43 1,-0.95 2.09,-1.87 3.16,-2.77 0.85,-0.72 1.68,-1.45 2.58,-2.14 1.21,-0.93 2.52,-1.8 3.82,-2.67 0.81,-0.55 1.58,-1.1 2.41,-1.62 0.09,-0.06 0.16,-0.12 0.25,-0.17 1.52,-0.93 3.16,-1.79 4.8,-2.65 0.83,-0.44 1.61,-0.92 2.47,-1.34 2.57,-1.24 5.26,-2.41 8.1,-3.48 v 0 0 c -11.06,1 -22.09,1.98 -33.13,2.94 -2.69,0.24 -5.39,0.47 -8.08,0.7 -10.07,0.87 -20.14,1.71 -30.18,2.51 -1.51,0.12 -3.04,0.25 -4.56,0.37 z m -73.81,-90.73 c -94.38,0.15 -146.87,-67.98 -202.71,-140.49 -55.75,-72.39 -132.09,-171.51 -284.51,-262.14 l -54.71,-32.54 26.88,-57.71 c 26.23,-56.29 64.64,-140.91 95.35,-225.68 l 0.7,-1.91 c -6.84,-8.92 -12.32,-19 -16.13,-30.06 -21.16,-61.47 -72.82,-251.87 -75.28,-264.56 -71.86,32.51 -181.87,131.66 -186.23,135.04 0,0.01 0,0.02 0,0.03 23.08,36.9 38.2,89.8 9.19,145.66 -36.81,70.86 -99.52,86.28 -138.97,83.92 33.76,109.3 -85.86,326.66 -85.86,326.66 45.08,-137.96 17.26,-275.92 17.26,-275.92 v -0.08 c -20.8,5.43 -48.04,6.51 -82.35,-4.03 -43.18,-13.26 -68.39,-37.89 -84.64,-65.97 -30.08,26.87 -72.7,34.44 -111.78,19 -7.55,-2.99 -14.65,-6.61 -21.24,-10.8 l -4.23,-3.2 c -70,471.88 -572.01,788.14 -572.03,788.15 0,0 -133.29,-92.15 -419.08,-96.42 -3.02,-0.05 -6.04,-0.07 -9.07,-0.07 -30.92,0 -62.91,2.3 -95.71,6.15 10.76,10.29 30.81,30.85 35.74,35.9 79.47,83.46 156,188.29 210.27,291.41 l 79.41,150.82 -162.69,-50.83 c -146.93,-45.9 -280.77,-68.87 -405.81,-68.87 -116.97,0 -226.21,20.1 -331.22,60.33 14.87,7.88 29.52,15.74 44.04,23.59 188.9,102.09 349.2,202.04 499.3,311.13 l 225.72,164.07 -276.54,-37.36 c -52.49,-7.09 -102.59,-10.65 -150.43,-10.65 -201.77,0 -362.86,63.31 -488.7,191.67 17.94,0.46 54.18,2.28 54.18,2.28 127.57,7.45 259.5,29.79 400.76,67.74 l 255.61,68.66 h 0.01 l -255.95,67.41 c -197.73,52.08 -378.63,155.86 -509.37,292.21 -71.39,74.45 -124.34,155.09 -155.21,235.86 305.52,-266.32 595.17,-146.88 647.49,-121.76 l -139.56,88.06 c -398.23,239.16 -434.58,573.19 -401.41,873.87 9.82,-19.94 20.27,-39.51 31.31,-58.75 -2.83,4.93 -5.5,9.94 -8.26,14.91 203.15,-367.37 618.59,-610.65 1021.56,-846.49 119.21,-69.76 242.48,-141.9 357.92,-215.9 l 211.7,-135.71 -110.46,225.9 c -25.36,51.87 -33.09,101.01 -33.35,154.94 281.3,-290.31 825.97,-801.62 825.97,-801.62 0,0 37.12,-361.58 243.3,-429.53 0,0 -76.68,-48.26 -196.19,42.15 0,0 22.67,-178.54 125.22,-280.39 15.9,-14.13 33.1,-27.43 51.73,-39.73 2.74,-1.57 5.44,-3.2 8.26,-4.66 l -1.63,0.38 c 1.7,-1.08 3.34,-2.21 5.06,-3.27 -36.84,-13.52 -69.5,-29.68 -98.7,-48.7 l -1.21,0.08 -19.49,-14.27 c -1.58,-1.15 -3.09,-2.36 -4.78,-3.76 -5.03,-3.85 -9.95,-7.84 -14.85,-11.97 l -1.52,-1.29 c -1.79,-1.48 -3.56,-2.97 -5.29,-4.5 -7.82,-6.94 -14.62,-13.41 -20.78,-19.8 l -80.8,-83.7 113.28,-26.42 c 81.94,-19.1 165.17,-25.23 251.8,-18.72 -0.8,-1.69 -1.59,-3.39 -2.36,-5.1 l -79,-173.98 c -0.53,-1.16 0.77,-2.66 1.77,-1.88 81.71,63.81 431.25,167.37 557.05,123.03 -2.58,0.08 -5.19,0.18 -7.75,0.18 z m -376.17,-784.12 c 8.79,25.56 33.2,36.7 54.26,37.02 20.18,0.31 39.47,-10.2 47.4,-30.74 8.55,-22.19 4.77,-53.99 -2.93,-75.26 -11.08,-30.57 -25.81,-37.04 -25.81,-37.04 l -32.75,65.55 c 0,0 -6.51,-32.06 5.41,-58.32 11.91,-26.27 21.59,-36.74 21.59,-36.74 0,0 15.08,4.81 31.26,26.39 16.18,21.58 25.4,48.73 25.4,48.73 29.96,40.35 52.36,78.22 107.56,74.76 44.31,-2.77 75.41,-24.97 66.81,-74.21 -7.07,-40.43 -34.39,-58.3 -34.39,-58.3 0,0 0.27,16.74 -15.61,35.32 -15.88,18.57 -29.52,21.35 -29.52,21.35 0,0 -37,-55.9 -57.36,-79.32 -20.35,-23.44 -26.24,-24.51 -26.24,-24.51 0,0 30.51,-1.24 52.82,14.74 22.31,15.98 47.56,44.63 47.56,44.63 l 16.75,-43.64 c 0,0 26.65,12.83 48.6,38.82 21.95,26.01 25.62,42.05 25.62,42.05 0,0 55.4,-10.24 62.75,-76.01 7.36,-65.76 -64.56,-91.33 -64.56,-91.33 0,0 3.29,26.9 -1.71,49.27 -5,22.37 -17.1,29.39 -17.1,29.39 0,0 -103.16,-19.38 -151.47,-50.61 -48.33,-31.24 -152.82,-148.87 -152.82,-148.87 0,0 -31.99,-76.77 21.24,-78.8 27.9,-1.06 32.69,0.44 32.69,0.44 0,0 -23.08,-47.05 -74.23,-45.22 -22.38,0.8 -47.24,5.08 -55.75,20.41 -25.97,46.68 -1.76,190.45 28.74,306.66 12.21,46.48 26.65,97.79 45.79,153.39 z m -368.58,-109.6 c 0,0 -7.66,30.19 -22.27,52.19 -14.6,21.99 -30.38,24.66 -30.38,24.66 0,0 -101.66,-62.24 -140.08,-115.16 -38.42,-52.92 -119.08,-211.81 -119.08,-211.81 0,0 45.09,-91.76 73.63,-85.29 30.96,7.01 34.57,13.59 34.57,13.59 0,0 -5.01,-59.75 -60.15,-78.33 -24.15,-8.13 -52.35,-13.53 -67.77,-0.51 -46.99,39.65 -80.91,203.62 -96.69,340.55 -6.31,54.77 -12.23,115.62 -14.96,182.97 -1.25,30.95 20.1,52.71 42.34,61.51 21.35,8.44 46.22,4.92 63.17,-13.94 18.31,-20.38 27.48,-56 28.11,-81.92 0.91,-37.25 -12.08,-50.11 -12.08,-50.11 l -62.02,57.17 c 0,0 6.38,-37 29.95,-60.39 23.58,-23.4 38.21,-30.74 38.21,-30.74 0,0 14.03,11.21 22.28,40.86 8.25,29.66 6.8,62.49 6.8,62.49 15.12,55.33 23.23,104.96 83.36,123.42 48.27,14.82 90.56,3.51 101.83,-52.77 9.28,-46.22 -12.36,-76.36 -12.36,-76.36 0,0 -6.66,18.06 -31.26,31.62 -24.6,13.54 -40.26,11.04 -40.26,11.04 0,0 -16.15,-74.84 -28.07,-108.15 -11.93,-33.31 -17.74,-36.84 -17.74,-36.84 0,0 32.97,10.94 50.06,37.04 17.08,26.11 32.05,66.99 32.05,66.99 l 35.91,-40.08 c 0,0 23.03,24.45 35.58,61.17 12.56,36.72 9.82,55.4 9.82,55.4 0,0 63.14,11.27 98.25,-56.33 35.11,-67.61 -30.75,-123.94 -30.75,-123.94 z m -1074.92,44.79 c 120.9,26.11 384.6,464.86 384.6,464.86 -214.7,-555.23 -384.6,-464.86 -384.6,-464.86 z m -250.13,31.01 c 142.74,19.31 476.57,495.51 476.57,495.51 -277.52,-616.77 -476.57,-495.51 -476.57,-495.51 z m -334.63,81.39 C 2112.21,1955.18 2589,2490.9 2589,2490.9 2175.56,1772.75 1847.66,1932.45 1847.66,1932.45 Z m -354.6,99.01 c 288.06,-5.99 1032.69,587.08 1032.69,587.08 -710.11,-802.82 -1032.69,-587.08 -1032.69,-587.08 z m 2147.1,1806.71 c -107.38,71.85 -195.08,150.85 -222.94,320.46 60.48,-111.45 134.13,-218.48 222.94,-320.46 z m -104.08,1008.42 c 11.81,-262.5 187.29,-543.79 352.29,-777.72 -223.39,204.38 -380.51,452 -352.29,777.72 z m 460.11,177.46 c -15.86,-244.32 35.77,-475.77 121.32,-700.77 -166.74,274.64 -175.77,382.96 -121.32,700.77 z m 766.87,-2205.11 c 2.77,207.07 -205.23,346.66 -387.69,438.74 247.68,326.8 91.82,817.34 -50.88,1164.41 -177.65,432.13 -271.3,698.17 -130.03,1140.49 l 87.01,272.42 -165.93,-232.92 c -200.19,-281.01 -299.2,-624.65 -306.64,-1070.86 -82.1,165 -167.45,344.4 -258.64,543.55 l -42.33,92.44 -39.44,-93.71 c -108.23,-257.09 -38.96,-566.29 38.69,-850.11 -42.66,63.01 -82.11,127.63 -118.96,194.74 l -86.87,158.22 3.07,-180.48 c 3.46,-203.96 22.96,-359.21 67.09,-518.55 -258.73,243.2 -528.7,502.7 -795.24,784.43 l -68.14,72.01 -8.79,-98.74 -2.07,-22.86 c -7.39,-81.16 -14.12,-155.15 -2.26,-229.18 -85.85,52.61 -173.58,103.95 -259.24,154.09 -250.18,146.41 -508.89,297.81 -707.09,474.07 -220.57,196.15 -339.55,396.26 -374.43,629.75 l -41.84,280.04 -46.39,-279.32 c -3.71,-22.26 -7.78,-45.43 -11.99,-69.38 -55.3,-314.73 -136.335,-776.14 283.99,-1116.18 -52.8,16.32 -111.56,43.2 -172.87,79.42 -96.23,56.85 -174.505,122.41 -206.498,159.27 l -74.394,85.67 -3.965,-113.4 c -5.813,-166 71.77,-341.66 218.437,-494.62 110.4,-115.13 252.45,-209.21 409.98,-272.92 -108.94,-20.95 -212.37,-31.22 -313.08,-31.22 -35.2,0 -70.58,1.29 -105.17,3.83 l -90.995,6.67 50.545,-75.96 c 157.04,-236.04 384.48,-355.71 676.01,-355.71 0.09,0 0.2,0 0.3,0 C 1573.54,3345.76 1404,3248.91 1203.77,3148.17 l -75.4,-37.94 73.78,-41 c 161.5,-89.75 329.26,-133.38 512.84,-133.38 104.74,0 214.02,14.37 331.61,43.73 -67.91,-104.14 -150.43,-193.06 -246.25,-265.21 l -63,-47.43 73.08,-29.64 c 87.58,-35.51 178.16,-53.52 269.22,-53.52 28.75,0 57.77,1.8 86.97,5.38 -199.65,-153.19 -497.94,-317.93 -663.35,-393.74 -164.39,-75.36 -345.87,-128.98 -347.68,-129.52 l -69.98,-20.56 50.12,-52.99 c 6.93,-7.32 72.07,-72.32 223.2,-98.6 90.39,-15.71 146.7,-20.3 177.89,-21.4 19.37,-24.5 58.22,-57.06 133.72,-74.34 73.72,-16.88 133.91,-21.93 164.81,-23.42 21.02,-20.88 62.71,-46.79 144.47,-60.25 41.07,-6.76 78.92,-10.19 112.48,-10.19 19.5,0 34.69,1.17 45.85,2.55 26.93,-17.64 81.73,-45.92 156.21,-45.92 5,0 10.09,0.13 15.28,0.39 68.81,3.52 116.12,15.92 142.01,24.77 22.98,-8.04 52.44,-9.64 80.93,-9.64 10.71,0 22.39,0.3 34.71,0.88 118.72,5.6 227.72,147.33 243.28,168.38 l 113.75,138.62 c 1.27,-1.93 2.54,-3.84 3.82,-5.71 1.08,-1.57 4.48,-7.17 7.47,-12.12 7.89,-13.03 20.21,-33.37 35.89,-56.69 -1.88,-19.84 -1.15,-39.22 -0.04,-56.27 3.04,-46.84 9.98,-93.35 16.81,-136.96 5.78,-36.8 12.1,-74 18.22,-109.97 2.96,-17.54 5.95,-35.07 8.87,-52.62 l 2.39,-14.38 c 4.01,-24.37 8.15,-49.57 13.84,-74.78 12.13,-53.78 35.27,-129.47 95.91,-165.79 21.96,-13.15 46.45,-19.82 72.78,-19.82 30.91,0 64.41,9.39 99.56,27.9 49.77,26.2 83.19,70.61 96.67,128.42 6.01,25.72 7.92,54.71 5.13,77.54 l -2.82,23.12 -7.21,58.98 -54.66,-23.31 -10.58,-4.52 c 7.15,17.43 14.46,33.18 22.15,47.7 9,17.01 17.5,30.35 25.98,40.81 6.75,8.3 14.56,16.86 23.9,26.15 7.2,7.15 14.93,14.41 23.05,21.64 l 4.95,-53.14 55.26,21.65 15.74,6.17 c 33.65,-29.58 116.04,-101.95 206.06,-141.5 -7.27,-49.64 -11.7,-120.22 28.22,-170.54 18.64,-23.48 54.5,-51.47 119.5,-51.47 10.27,0 21.16,0.7 32.36,2.07 51.58,6.32 95.17,33.46 126.05,78.47 13.73,20.02 25.05,44.2 30.26,64.67 l 5.17,20.2 14.84,58.16 -58.26,-2.42 c 8.6,8.65 17,16.52 25.35,23.76 12.95,11.2 24.28,19.54 34.61,25.46 8.31,4.76 17.58,9.39 28.3,14.12 5.76,2.54 11.73,5.03 17.87,7.47 l -12.31,-43.02 59.99,0.73 21.04,0.25 c 26.44,0.33 58.63,7.83 84.01,19.57 59.93,27.76 93.59,82.01 92.35,148.85 -1.13,61.24 -23.38,111.37 -64.36,144.96 -9.61,7.88 -20.72,15 -32.14,20.7 -3.28,7.4 -7.01,14.7 -11.01,21.52 -23.46,40.01 -57.46,66.3 -98.3,76.04 -10.7,2.55 -21.88,3.85 -33.2,3.85 -26.57,0 -53.97,-6.93 -81.61,-20.6 -24.36,23.12 -57.13,35.31 -95.11,35.31 h -1.68 c -2.41,-0.03 -4.79,-0.09 -7.18,-0.21 -23.06,60.09 -48.44,117.93 -69.73,164.58 148.56,95.63 225.41,195.4 282.59,269.63 49.73,64.58 75.23,95.62 111.17,95.62 107.87,-0.21 293.06,-96.54 358,-171.05 l 16.99,-19.48 25.36,5.02 c 120.37,23.82 208.66,110.89 224.92,221.81 13.73,93.69 -29.73,182.7 -114.46,238.23" /><path
         id="path16"
         style="fill:#1f3761;fill-opacity:1;fill-rule:nonzero;stroke:none"
         d="m 4658.6,2727.9 c -21.47,-0.02 -37.85,-25.75 -37.85,-25.75 52.83,-5.52 59.32,25.76 37.85,25.75" /></g></g></svg>