<?xml version="1.0" encoding="UTF-8" standalone="no"?>
<svg
   xmlns:dc="http://purl.org/dc/elements/1.1/"
   xmlns:cc="http://creativecommons.org/ns#"
   xmlns:rdf="http://www.w3.org/1999/02/22-rdf-syntax-ns#"
   xmlns:svg="http://www.w3.org/2000/svg"
   xmlns="http://www.w3.org/2000/svg"
   viewBox="0 0 438.35999 165.69333"
   height="165.69333"
   width="438.35999"
   xml:space="preserve"
   id="svg2"
   version="1.1"><metadata
     id="metadata8"><rdf:RDF><cc:Work
         rdf:about=""><dc:format>image/svg+xml</dc:format><dc:type
           rdf:resource="http://purl.org/dc/dcmitype/StillImage" /></cc:Work></rdf:RDF></metadata><defs
     id="defs6" /><g
     transform="matrix(1.3333333,0,0,-1.3333333,0,165.69333)"
     id="g10"><g
       transform="scale(0.1)"
       id="g12"><path
         id="path14"
         style="fill:#ffffff;fill-opacity:1;fill-rule:nonzero;stroke:none"
         d="m 2782.69,1179.52 111.19,-206.668 v -441.93 c 0,-71.852 -5.98,-127.781 -35.6,-163.914 -32.14,-38.024 -76.86,-57.317 -132.91,-57.317 -56.04,0 -100.76,19.293 -132.69,57.086 -29.84,36.364 -35.81,92.293 -35.81,164.145 V 1179.52 H 2422.28 L 2267.39,613.918 v -82.996 c 0,-159.762 31.03,-266.317 104.03,-347.051 81.66,-86.7812 200.74,-130.7812 353.95,-130.7812 151.69,0 273.63,45.2696 352.59,130.9412 73.86,80.024 105.4,186.621 105.4,346.891 v 648.598 h -400.67" /><path
         id="path16"
         style="fill:#ffffff;fill-opacity:1;fill-rule:nonzero;stroke:none"
         d="m 804.496,1179.52 c 46.102,-18.09 88.168,-43.95 125.039,-77.64 4.82,-4.41 9.528,-8.93 14.145,-13.54 9.16,-9.23 18.019,-19.02 26.281,-29.08 60.009,-73.096 93.059,-165.619 93.059,-260.498 0,-28.059 -2.87,-56.094 -8.47,-83.391 -1.62,-7.726 -3.42,-15.41 -5.4,-22.84 -0.72,-2.633 -1.46,-5.215 -2.22,-7.824 -2.58,-8.973 -5.56,-17.859 -8.74,-26.602 L 1195.62,80.6914 h 265.62 L 1633.9,679.91 1806.56,80.6914 h 265.63 L 2371.61,1179.52 H 1924.47 L 2035.43,972.734 1929.64,533.23 1765.08,1179.71 h -427.9 l 111.99,-209.026 -109.71,-437.454 -157.52,646.48 -377.444,-0.19" /><path
         id="path18"
         style="fill:#ffffff;fill-opacity:1;fill-rule:nonzero;stroke:none"
         d="M 1019.69,220.531 869.414,500.227 c 32.973,26.074 61.535,57.546 84.356,93.101 7.593,11.84 14.558,24.137 20.859,36.852 3.137,6.343 6.094,12.804 8.883,19.336 6.023,14.121 11.168,28.679 15.484,43.605 0.692,2.379 1.384,4.777 2.034,7.18 1.86,6.992 3.53,14.051 5,21.179 5.15,24.989 7.85,50.856 7.85,77.368 v 0.023 c 0,91.785 -32.4,175.957 -86.298,241.629 -7.707,9.39 -15.852,18.39 -24.391,26.99 -4.265,4.3 -8.648,8.47 -13.125,12.58 -40.265,36.78 -88.464,64.95 -141.695,81.61 -0.441,0.11 -0.902,0.23 -1.34,0.37 -35.117,10.84 -74.781,17.65 -113.429,17.65 H 36.9648 L 178.637,915.555 V 84.6016 h 0.16 V 80.6797 H 443.914 V 418.965 H 611.75 L 793.5,80.6797 h 301.32 z M 736.719,740.633 c -2.953,-5.078 -6.184,-9.945 -9.875,-14.469 -20.676,-25.426 -51.965,-41.785 -87.082,-42.223 v -0.07 h -1.43 -0.023 -194.555 V 913.57 h 196.008 v -0.07 c 11.699,-0.16 22.98,-2.078 33.593,-5.492 7.063,-2.285 13.844,-5.262 20.239,-8.813 35.164,-19.566 58.976,-57.203 58.976,-100.488 0,-21.227 -5.84,-41.023 -15.851,-58.074" /></g></g></svg>